# xmcd
# Copyright (C) 1995-1998 Ti Kan
#
# Track frame offsets:
#       150
#       17877
#       34898
#       59486
#       77184
#
# Disc length: 1202 seconds
#
# Revision: 0
# Processed by: cddbd v1.5.1PL0 Copyright (c) Steve Scherf et al.
# Submitted via: CD-Transfer v1.0
#
DISCID=3d04b005
DTITLE=Γαρμπη Καιτη - Γαλαζιο and Λευκο
DYEAR=04
DGENRE=
TTITLE0=Γαλαζιο Και Λευκο
TTITLE1=Καταπληκτικο
TTITLE2=Εσενα Μονο Summer Dance
TTITLE3=Βιαστηκα
TTITLE4=Εσενα Μονο Remix Νικ. Τερζησ
EXTD=
EXTT0=
EXTT1=
EXTT2=
EXTT3=
EXTT4=
PLAYORDER=
